<svg xmlns="http://www.w3.org/2000/svg" viewBox="0 0 256.466 118.889">
  <defs>
    <style>
      .cls-1 {
        fill: none;
      }

      .cls-2 {
        fill: #f79e1b;
      }

      .cls-3 {
        fill: #eb001b;
      }
    </style>
  </defs>
  <g id="mastercard_secure" transform="translate(0 0)">
    <rect id="Rectangle_12" data-name="Rectangle 12" class="cls-1" width="256.466" height="118.889" transform="translate(0 0)"/>
    <path id="Path_109" data-name="Path 109" class="cls-2" d="M392.25,883.673a14.727,14.727,0,0,0-3.377-1.591,11.984,11.984,0,0,0-3.721-.566,9.345,9.345,0,0,0-2.3.261,5.66,5.66,0,0,0-1.786.751,3.738,3.738,0,0,0-1.153,1.182,2.967,2.967,0,0,0-.409,1.555,2.435,2.435,0,0,0,.362,1.349,2.913,2.913,0,0,0,1.033.929,6.721,6.721,0,0,0,1.647.642,20.34,20.34,0,0,0,2.186.427l1.739.233a19.053,19.053,0,0,1,2.977.661,9.04,9.04,0,0,1,2.6,1.254,6.192,6.192,0,0,1,1.86,2.03,5.915,5.915,0,0,1,.688,2.957,6.942,6.942,0,0,1-.81,3.415,7.42,7.42,0,0,1-2.186,2.474,10.082,10.082,0,0,1-3.2,1.525,13.941,13.941,0,0,1-3.869.522,17.06,17.06,0,0,1-2.651-.214,18.6,18.6,0,0,1-2.706-.632,16.417,16.417,0,0,1-2.558-1.052,10.881,10.881,0,0,1-2.186-1.47l2.2-3.229a8,8,0,0,0,1.554,1.1,13.6,13.6,0,0,0,4.111,1.46,12.051,12.051,0,0,0,2.214.206,9.955,9.955,0,0,0,2.307-.251,6.294,6.294,0,0,0,1.86-.736,3.925,3.925,0,0,0,1.246-1.171,2.8,2.8,0,0,0,.456-1.555,2.435,2.435,0,0,0-1.442-2.24,12.907,12.907,0,0,0-4.214-1.145l-1.953-.27a15.284,15.284,0,0,1-2.735-.642,7.945,7.945,0,0,1-2.391-1.264,6.118,6.118,0,0,1-1.684-2.047,6.41,6.41,0,0,1-.642-2.986,6.989,6.989,0,0,1,.782-3.347,7.283,7.283,0,0,1,2.13-2.456,9.756,9.756,0,0,1,3.154-1.517,13.818,13.818,0,0,1,3.85-.52,15.866,15.866,0,0,1,4.958.726,17.067,17.067,0,0,1,4.121,1.981Zm13.692,1.917a8.109,8.109,0,0,1,3.293.649,7.382,7.382,0,0,1,2.567,1.86,8.66,8.66,0,0,1,1.665,2.838,10.719,10.719,0,0,1,.6,3.721v.717a2.687,2.687,0,0,1-.056.679H401.292a5.6,5.6,0,0,0,.66,1.99,4.677,4.677,0,0,0,1.135,1.321,4.59,4.59,0,0,0,1.526.781,6.137,6.137,0,0,0,1.758.252,7.483,7.483,0,0,0,2.6-.475,8.371,8.371,0,0,0,2.381-1.339l1.86,2.679a9.329,9.329,0,0,1-3.349,1.86,12.745,12.745,0,0,1-3.721.539,9.526,9.526,0,0,1-3.516-.632,8.079,8.079,0,0,1-2.79-1.86,8.273,8.273,0,0,1-1.8-2.791,10.234,10.234,0,0,1-.651-3.72,10.351,10.351,0,0,1,.632-3.721,8.383,8.383,0,0,1,1.758-2.866,7.833,7.833,0,0,1,2.7-1.86A8.94,8.94,0,0,1,405.942,885.59Zm-.065,3.339a4.841,4.841,0,0,0-1.786.307,3.85,3.85,0,0,0-1.349.874,4.585,4.585,0,0,0-.93,1.347,6.4,6.4,0,0,0-.5,1.712h8.92a5.372,5.372,0,0,0-1.432-3.163A3.99,3.99,0,0,0,405.877,888.929Zm19.944-3.339a9.265,9.265,0,0,1,3.609.687,7.257,7.257,0,0,1,2.79,2.056l-2.391,2.6a7.224,7.224,0,0,0-1.861-1.322,5.239,5.239,0,0,0-2.223-.456,4.993,4.993,0,0,0-2.009.4,4.767,4.767,0,0,0-1.618,1.135,5.209,5.209,0,0,0-1.07,1.74,6.659,6.659,0,0,0,0,4.474,5.194,5.194,0,0,0,1.07,1.74,4.779,4.779,0,0,0,1.618,1.135,4.993,4.993,0,0,0,2.009.4,5.345,5.345,0,0,0,2.316-.511,7.474,7.474,0,0,0,1.86-1.285l2.316,2.588a7.605,7.605,0,0,1-2.791,2.056,9.181,9.181,0,0,1-3.591.688,9.628,9.628,0,0,1-3.72-.688,8.307,8.307,0,0,1-4.651-4.762,10.293,10.293,0,0,1,0-7.182,8.311,8.311,0,0,1,4.651-4.762,9.58,9.58,0,0,1,3.674-.734Zm25.636,10.352a8.309,8.309,0,0,1-.679,3.517,6.852,6.852,0,0,1-1.8,2.41,7.224,7.224,0,0,1-2.549,1.377,10.064,10.064,0,0,1-5.888,0,7.3,7.3,0,0,1-2.558-1.377,6.694,6.694,0,0,1-1.8-2.41,8.376,8.376,0,0,1-.67-3.517v-9.906h3.768v9.554a6.089,6.089,0,0,0,.325,2.11,3.734,3.734,0,0,0,.931,1.415,3.4,3.4,0,0,0,1.34.781,5.749,5.749,0,0,0,3.3,0,3.4,3.4,0,0,0,1.339-.781,3.684,3.684,0,0,0,.93-1.415,6.049,6.049,0,0,0,.279-2.11v-9.554h3.721ZM465.15,885.59a9.177,9.177,0,0,1,1.554.121,6.8,6.8,0,0,1,1.339.361l-.931,3.722a5.312,5.312,0,0,0-1.386-.466,7.369,7.369,0,0,0-1.47-.159,4.372,4.372,0,0,0-1.656.307,3.509,3.509,0,0,0-1.293.931,4.223,4.223,0,0,0-.846,1.451,5.835,5.835,0,0,0-.307,1.953v9.461h-3.721V886.036h3.721v1.934a5.177,5.177,0,0,1,2.14-1.814,6.837,6.837,0,0,1,2.884-.566Zm12.6,0a8.1,8.1,0,0,1,3.293.649,7.392,7.392,0,0,1,2.568,1.86,8.681,8.681,0,0,1,1.693,2.838,10.751,10.751,0,0,1,.568,3.721v.717a2.658,2.658,0,0,1-.056.679H473.131a5.6,5.6,0,0,0,.651,1.953,4.707,4.707,0,0,0,1.163,1.358,4.591,4.591,0,0,0,1.526.781,6.136,6.136,0,0,0,1.758.252,7.482,7.482,0,0,0,2.6-.475,8.373,8.373,0,0,0,2.381-1.339l1.86,2.679a9.331,9.331,0,0,1-3.349,1.86,12.743,12.743,0,0,1-3.721.539,9.47,9.47,0,0,1-3.553-.643,8.019,8.019,0,0,1-2.791-1.86,8.238,8.238,0,0,1-1.8-2.781,10.23,10.23,0,0,1-.652-3.72,10.35,10.35,0,0,1,.633-3.721,8.384,8.384,0,0,1,1.758-2.866,7.841,7.841,0,0,1,2.7-1.86,8.941,8.941,0,0,1,3.479-.622Zm-.074,3.339a4.842,4.842,0,0,0-1.786.307,3.851,3.851,0,0,0-1.348.874,4.591,4.591,0,0,0-.931,1.347,6.42,6.42,0,0,0-.5,1.712h8.921a5.369,5.369,0,0,0-1.4-3.163,3.989,3.989,0,0,0-2.921-1.077ZM502.1,877.636a14.271,14.271,0,0,1,3.228.363,12.6,12.6,0,0,1,2.874,1.042,11.319,11.319,0,0,1,2.474,1.665,9.476,9.476,0,0,1,1.86,2.2l-3.4,2.261a8.238,8.238,0,0,0-2.958-2.662,8.456,8.456,0,0,0-4.065-.929,9.339,9.339,0,0,0-3.553.66,8.3,8.3,0,0,0-2.791,1.86,8.627,8.627,0,0,0-1.86,2.893,10.581,10.581,0,0,0,0,7.441,8.591,8.591,0,0,0,1.86,2.893,8.3,8.3,0,0,0,2.791,1.86,9.364,9.364,0,0,0,3.553.661,8.253,8.253,0,0,0,7.023-3.637l3.3,2.427a10.784,10.784,0,0,1-1.861,2.121,11.85,11.85,0,0,1-2.409,1.6,12.631,12.631,0,0,1-2.79,1.014,14.749,14.749,0,0,1-8.484-.634,12.087,12.087,0,0,1-6.874-6.845,14.472,14.472,0,0,1,0-10.409,12.1,12.1,0,0,1,6.874-6.847A14.048,14.048,0,0,1,502.1,877.636Zm22.167,7.954a9.66,9.66,0,0,1,3.721.687,9.007,9.007,0,0,1,2.939,1.86A8.73,8.73,0,0,1,532.86,891a9.566,9.566,0,0,1,0,7.182,8.7,8.7,0,0,1-1.935,2.864,8.98,8.98,0,0,1-2.939,1.862,10.178,10.178,0,0,1-7.376,0,8.867,8.867,0,0,1-2.931-1.862,8.766,8.766,0,0,1-1.925-2.864,9.563,9.563,0,0,1,0-7.182,8.811,8.811,0,0,1,1.9-2.855,8.919,8.919,0,0,1,2.93-1.86A9.677,9.677,0,0,1,524.265,885.59Zm0,3.534a5.561,5.561,0,0,0-2.14.4,4.98,4.98,0,0,0-1.7,1.135,5.27,5.27,0,0,0-1.135,1.738,6.261,6.261,0,0,0,0,4.475,5.277,5.277,0,0,0,1.135,1.739,5.085,5.085,0,0,0,1.73,1.135,5.855,5.855,0,0,0,4.27,0,5.112,5.112,0,0,0,2.856-2.874,6.261,6.261,0,0,0,0-4.475,5.184,5.184,0,0,0-1.144-1.738,5.119,5.119,0,0,0-1.711-1.135A5.535,5.535,0,0,0,524.265,889.124Zm20.548-3.534a6.509,6.509,0,0,1,5.414,2.556V877.386h3.72v25.85h-3.72V901.17a6.651,6.651,0,0,1-2.223,1.86,6.885,6.885,0,0,1-3.181.679,8.368,8.368,0,0,1-6.1-2.549,8.647,8.647,0,0,1-1.86-2.864,10.279,10.279,0,0,1,0-7.275,8.651,8.651,0,0,1,1.86-2.864,8.37,8.37,0,0,1,6.1-2.549Zm.447,3.534a5.193,5.193,0,0,0-2.177.437,4.9,4.9,0,0,0-1.628,1.18,5.269,5.269,0,0,0-1.023,1.751,6.509,6.509,0,0,0,0,4.268,5.233,5.233,0,0,0,1.023,1.748,4.859,4.859,0,0,0,1.628,1.183,5.581,5.581,0,0,0,4.3,0,4.912,4.912,0,0,0,1.637-1.154,5.209,5.209,0,0,0,1.042-1.712,6.506,6.506,0,0,0,0-4.382A5.241,5.241,0,0,0,549,890.7a4.935,4.935,0,0,0-1.638-1.162,5.184,5.184,0,0,0-2.094-.418Zm21.2-3.534a8.1,8.1,0,0,1,3.292.649,7.374,7.374,0,0,1,2.567,1.86,8.638,8.638,0,0,1,1.674,2.838,10.7,10.7,0,0,1,.6,3.674v.717a2.681,2.681,0,0,1-.056.679H561.817a5.593,5.593,0,0,0,.66,1.991,4.638,4.638,0,0,0,1.163,1.356,4.572,4.572,0,0,0,1.526.782,6.12,6.12,0,0,0,1.758.252,7.481,7.481,0,0,0,2.595-.477,8.323,8.323,0,0,0,2.382-1.339l1.86,2.679a9.339,9.339,0,0,1-3.349,1.86,12.747,12.747,0,0,1-3.721.541,9.532,9.532,0,0,1-3.553-.643,8.069,8.069,0,0,1-2.79-1.86,8.268,8.268,0,0,1-1.8-2.772,10.228,10.228,0,0,1-.642-3.72,10.367,10.367,0,0,1,.623-3.721,8.419,8.419,0,0,1,1.758-2.847,7.838,7.838,0,0,1,2.7-1.86,8.916,8.916,0,0,1,3.478-.641Zm9.925,17.672V902.4h.344v-.176h-.93v.176h.354v.864Zm1.721,0v-1.069h-.27l-.316.717-.316-.717h-.27v1.043h.2v-.793l.3.681h.2l.3-.681v.793Zm-11.721-14.305a4.845,4.845,0,0,0-1.786.307,3.881,3.881,0,0,0-1.349.874,4.634,4.634,0,0,0-.93,1.349,6.4,6.4,0,0,0-.5,1.712h8.921a5.369,5.369,0,0,0-1.414-3.192,3.991,3.991,0,0,0-2.931-1.077Z" transform="translate(-346.344 -812.894)"/>
    <path id="Path_110" data-name="Path 110" class="cls-3" d="M428.673,448.489h-4.205V427L416.85,445.94h-4.427l-7.582-18.7v21.246H400.6V422.443h6.466l7.58,18.6,7.582-18.6h6.464Zm22.157,0h-3.888v-2.139a6.87,6.87,0,0,1-2.308,1.86,7.136,7.136,0,0,1-3.292.707,8.685,8.685,0,0,1-6.335-2.643,9,9,0,0,1-1.86-2.967,10.66,10.66,0,0,1,0-7.545,9.007,9.007,0,0,1,1.86-2.967,8.684,8.684,0,0,1,6.335-2.642,6.741,6.741,0,0,1,5.6,2.623v-2.12h3.888ZM441.8,433.856a5.4,5.4,0,0,0-2.26.457,5.053,5.053,0,0,0-1.684,1.227,5.447,5.447,0,0,0-1.06,1.86,6.777,6.777,0,0,0,0,4.428,5.443,5.443,0,0,0,1.06,1.861,5.047,5.047,0,0,0,1.684,1.227,5.783,5.783,0,0,0,4.456,0,5.1,5.1,0,0,0,1.693-1.2,5.437,5.437,0,0,0,1.107-1.833,6.791,6.791,0,0,0,0-4.539,5.445,5.445,0,0,0-1.1-1.8,5.111,5.111,0,0,0-1.693-1.2A5.367,5.367,0,0,0,441.8,433.856Zm26.9,1.265a10.734,10.734,0,0,0-1-.511,11.469,11.469,0,0,0-1.321-.493,13.922,13.922,0,0,0-1.534-.371,9.1,9.1,0,0,0-1.647-.149,4.472,4.472,0,0,0-2.484.586,1.778,1.778,0,0,0-.93,1.535,1.292,1.292,0,0,0,.232.781,1.794,1.794,0,0,0,.623.521,3.824,3.824,0,0,0,.93.326q.539.12,1.154.214l1.86.279a9.6,9.6,0,0,1,4.557,1.7,4.26,4.26,0,0,1,1.637,3.563,5.1,5.1,0,0,1-.548,2.353,5.319,5.319,0,0,1-1.581,1.86,7.725,7.725,0,0,1-2.549,1.2,12.647,12.647,0,0,1-3.432.428q-.688,0-1.6-.084a13.361,13.361,0,0,1-1.935-.335,14.075,14.075,0,0,1-2.083-.7,9.62,9.62,0,0,1-1.972-1.181l1.776-2.9a9.224,9.224,0,0,0,1.051.7,7.691,7.691,0,0,0,1.284.577,9.875,9.875,0,0,0,1.581.4,11.662,11.662,0,0,0,1.963.149,6.255,6.255,0,0,0,3.032-.586,1.777,1.777,0,0,0,1.023-1.591,1.47,1.47,0,0,0-.744-1.256,5.868,5.868,0,0,0-2.345-.717l-1.859-.242a8.565,8.565,0,0,1-4.512-1.739,4.4,4.4,0,0,1-1.535-3.488,5.421,5.421,0,0,1,.512-2.437,4.957,4.957,0,0,1,1.469-1.767,7.071,7.071,0,0,1,2.316-1.136,10.844,10.844,0,0,1,3.07-.4,15.389,15.389,0,0,1,4.009.511,11.38,11.38,0,0,1,3.256,1.386Zm18.474-.93h-6.837v7.768a4.669,4.669,0,0,0,.224,1.526,2.852,2.852,0,0,0,.6,1.032,2.306,2.306,0,0,0,.93.586,3.251,3.251,0,0,0,1.107.186,5.2,5.2,0,0,0,1.86-.354,9.652,9.652,0,0,0,1.739-.855l1.544,3.107a12.17,12.17,0,0,1-2.465,1.209,8.382,8.382,0,0,1-3.042.522,6.382,6.382,0,0,1-4.716-1.684q-1.656-1.629-1.656-5.2v-7.842h-3.553v-3.534h3.553v-5.4h3.907v5.4h6.836Zm11.972-4a8.445,8.445,0,0,1,3.414.679,7.642,7.642,0,0,1,2.661,1.916,8.976,8.976,0,0,1,1.729,2.958,11.149,11.149,0,0,1,.624,3.8v.745a2.892,2.892,0,0,1-.056.707h-13.19a5.779,5.779,0,0,0,.689,2.065,4.87,4.87,0,0,0,1.209,1.4,4.769,4.769,0,0,0,1.581.809,6.336,6.336,0,0,0,1.86.261,7.792,7.792,0,0,0,2.688-.493,8.655,8.655,0,0,0,2.465-1.386l1.935,2.791a9.716,9.716,0,0,1-3.469,1.953,13.162,13.162,0,0,1-3.86.558,9.82,9.82,0,0,1-3.72-.669,8.369,8.369,0,0,1-2.884-1.86,8.568,8.568,0,0,1-1.86-2.958,10.6,10.6,0,0,1-.67-3.851,10.77,10.77,0,0,1,.651-3.814,8.735,8.735,0,0,1,1.861-2.967,8.1,8.1,0,0,1,2.79-1.916A9.307,9.307,0,0,1,499.145,430.192Zm-.074,3.461a5.074,5.074,0,0,0-1.861.316,4.019,4.019,0,0,0-1.395.93,4.773,4.773,0,0,0-.93,1.4,6.638,6.638,0,0,0-.521,1.777h9.256a5.581,5.581,0,0,0-1.489-3.237A4.135,4.135,0,0,0,499.071,433.652Zm21.99-3.461a9.725,9.725,0,0,1,1.609.121,7.129,7.129,0,0,1,1.386.382l-.93,3.851a5.568,5.568,0,0,0-1.433-.484,7.733,7.733,0,0,0-1.525-.167,4.528,4.528,0,0,0-1.712.316,3.625,3.625,0,0,0-1.339.93,4.372,4.372,0,0,0-.874,1.507,6.065,6.065,0,0,0-.317,2.028v9.814h-3.888V430.657h3.851v2.009a5.356,5.356,0,0,1,2.214-1.86A7.117,7.117,0,0,1,521.061,430.192Zm13.311,0a9.674,9.674,0,0,1,3.721.717,7.527,7.527,0,0,1,2.921,2.13l-2.492,2.66a7.456,7.456,0,0,0-1.973-1.367,5.454,5.454,0,0,0-2.307-.475,5.2,5.2,0,0,0-2.084.419,4.946,4.946,0,0,0-1.674,1.173,5.408,5.408,0,0,0-1.089,1.785,6.915,6.915,0,0,0,0,4.652,5.439,5.439,0,0,0,1.107,1.8,4.943,4.943,0,0,0,1.675,1.171,5.173,5.173,0,0,0,2.083.419,5.578,5.578,0,0,0,2.4-.529,7.732,7.732,0,0,0,1.973-1.331l2.4,2.679a7.863,7.863,0,0,1-2.939,2.131,9.555,9.555,0,0,1-3.721.716,9.984,9.984,0,0,1-3.852-.716,8.609,8.609,0,0,1-4.855-4.94,10.668,10.668,0,0,1,0-7.441,8.61,8.61,0,0,1,4.855-4.939A9.982,9.982,0,0,1,534.372,430.192Zm27.4,18.3h-3.888v-2.139a6.873,6.873,0,0,1-2.307,1.86,7.139,7.139,0,0,1-3.292.707,8.688,8.688,0,0,1-6.326-2.643,9.01,9.01,0,0,1-1.86-2.967,10.669,10.669,0,0,1,0-7.545,9.044,9.044,0,0,1,1.86-2.967,8.686,8.686,0,0,1,6.326-2.642,6.737,6.737,0,0,1,5.6,2.623v-2.12h3.888Zm-9.032-14.633a5.4,5.4,0,0,0-2.26.457,5.054,5.054,0,0,0-1.684,1.227,5.485,5.485,0,0,0-1.061,1.86,6.776,6.776,0,0,0,0,4.428,5.473,5.473,0,0,0,1.061,1.861,5.047,5.047,0,0,0,1.684,1.227,5.79,5.79,0,0,0,4.455,0,5.111,5.111,0,0,0,1.693-1.2,5.435,5.435,0,0,0,1.107-1.833,6.779,6.779,0,0,0,0-4.539,5.442,5.442,0,0,0-1.1-1.8,5.125,5.125,0,0,0-1.694-1.2A5.361,5.361,0,0,0,552.743,433.856Zm23.794-3.664a9.736,9.736,0,0,1,1.61.121,7.147,7.147,0,0,1,1.386.382l-.93,3.851a5.566,5.566,0,0,0-1.433-.484,7.748,7.748,0,0,0-1.525-.167,4.519,4.519,0,0,0-1.713.316,3.63,3.63,0,0,0-1.339.93,4.376,4.376,0,0,0-.875,1.507,6.062,6.062,0,0,0-.316,2.028v9.814h-3.888V430.657h3.833v2.009a5.34,5.34,0,0,1,2.214-1.86,7.119,7.119,0,0,1,2.985-.614Zm12.772,0a7.068,7.068,0,0,1,3.293.717,6.983,6.983,0,0,1,2.307,1.907V421.652H598.8v26.837H594.91v-2.139a6.882,6.882,0,0,1-2.307,1.86,7.141,7.141,0,0,1-3.293.707,8.685,8.685,0,0,1-6.325-2.643,9.015,9.015,0,0,1-1.861-2.967,10.669,10.669,0,0,1,0-7.545,9.032,9.032,0,0,1,1.861-2.967,8.684,8.684,0,0,1,6.325-2.642Zm14.037,16.65a1.143,1.143,0,0,1,.447.094,1.175,1.175,0,0,1,.363.241,1.156,1.156,0,0,1,.251.363,1.121,1.121,0,0,1,0,.884,1.143,1.143,0,0,1-.251.363,1.207,1.207,0,0,1-.363.242,1.126,1.126,0,0,1-.447.093,1.155,1.155,0,0,1-1.07-.7,1.129,1.129,0,0,1,.614-1.488,1.178,1.178,0,0,1,.465-.094Zm0,2.019a.849.849,0,0,0,.344-.065.92.92,0,0,0,.279-.186.93.93,0,0,0,0-1.246.917.917,0,0,0-.279-.186.864.864,0,0,0-.344-.065.9.9,0,0,0-.633,1.507.815.815,0,0,0,.642.242Zm.065-1.414a.48.48,0,0,1,.316.092.3.3,0,0,1,.112.243.294.294,0,0,1-.084.214.424.424,0,0,1-.251.1l.344.4h-.27l-.316-.391h-.1v.391h-.186v-1.033Zm-.261.2v.279h.261a.258.258,0,0,0,.14,0,.122.122,0,0,0,0-.2.256.256,0,0,0-.14,0Zm-13.367-13.786a5.4,5.4,0,0,0-2.26.457,5.055,5.055,0,0,0-1.684,1.227,5.489,5.489,0,0,0-1.061,1.86,6.777,6.777,0,0,0,0,4.428,5.477,5.477,0,0,0,1.061,1.861,5.049,5.049,0,0,0,1.684,1.227,5.79,5.79,0,0,0,4.455,0,5.1,5.1,0,0,0,1.693-1.265,5.426,5.426,0,0,0,1.1-1.767,6.78,6.78,0,0,0,0-4.539,5.419,5.419,0,0,0-1.1-1.852,5.127,5.127,0,0,0-1.693-1.2A5.388,5.388,0,0,0,589.784,433.856Z" transform="translate(-370.423 -393.606)"/>
  </g>
</svg>
