<svg xmlns="http://www.w3.org/2000/svg" viewBox="0 0 192.566 78.697">
  <defs>
    <style>
      .cls-1 {
        fill: #04a9e4;
      }

      .cls-2 {
        fill: #29b251;
      }
    </style>
  </defs>
  <g id="mir_accept" transform="translate(0 0)">
    <path id="Union_30" data-name="Union 30" class="cls-1" d="M31.418,77.9a39.155,39.155,0,0,1-14.071-5.921A39.5,39.5,0,0,1,3.091,54.664,39.06,39.06,0,0,1,.8,47.278a39.717,39.717,0,0,1,0-15.861A39.076,39.076,0,0,1,6.721,17.349,39.438,39.438,0,0,1,24.031,3.093,38.981,38.981,0,0,1,31.418.8a39.637,39.637,0,0,1,19.093.807A39.469,39.469,0,0,1,74.682,22.02c-.046-.079-.095-.162-.146-.246-2.82-.017-5.131-.025-6.868-.025-2.762,0-3.314.021-3.424.03h-.008a30.633,30.633,0,0,0-10.643-9.316,30.317,30.317,0,0,0-14.18-3.5,30.7,30.7,0,0,0-6.136.62,30.271,30.271,0,0,0-10.887,4.581,30.457,30.457,0,0,0,0,50.5,30.31,30.31,0,0,0,10.887,4.583A30.729,30.729,0,0,0,47.35,68.82,30.511,30.511,0,0,0,65.368,55.345c2.232,0,3.187.006,3.92.009l5.817-.009h.2c25.428-.036,108.4-.144,108.523.011,6.04,2.333,5.278,9.77,5.278,9.77H69.075a39.58,39.58,0,0,1-8.033,7.055A39.19,39.19,0,0,1,39.348,78.7,39.707,39.707,0,0,1,31.418,77.9ZM182.1,52.216V37.571h-5.286V33.429h15.753v4.142h-5.284V52.216Zm-49.606-1.541a7.066,7.066,0,0,1-2.99-2.8,9.474,9.474,0,0,1-1.259-5.123,8.7,8.7,0,0,1,2.214-6.4,10.073,10.073,0,0,1,11.247-.954,5.294,5.294,0,0,1,1.412,1.172s-.565.677-2.248,2.594c-5.963-3.4-8.732.024-8.641,3.45.095,3.541,3.242,7.081,9.076,3.089.129.165,2.234,2.611,2.234,2.611-.036-.044-.684,2.372-6.577,3.148A10.794,10.794,0,0,1,132.494,50.675Zm-16.639-.134a7.08,7.08,0,0,1-2.991-2.8,9.47,9.47,0,0,1-1.259-5.121,8.7,8.7,0,0,1,2.214-6.4,8.417,8.417,0,0,1,6.263-2.236,8.5,8.5,0,0,1,4.983,1.281,5.33,5.33,0,0,1,1.414,1.172s-.567.677-2.249,2.6c-5.963-3.4-8.732.023-8.641,3.448.094,3.541,3.242,7.082,9.076,3.089.129.164,2.237,2.611,2.237,2.611-.036-.043-.686,2.372-6.577,3.148A10.8,10.8,0,0,1,115.854,50.541Zm-10.05-2.8h-4.942l-1.036,3.318H95.519l5.575-16.772h4.375l5.577,16.693-4.3.079Zm-4.235-3.516h3.3l-1.543-5.739Zm57.008,6.757V42.125h16.108a5.61,5.61,0,0,1-5.3,3.686h-5.622v5.174Zm-13.486-.221V33.99h10.235v3.58h-6.1v2.665h4.983v3.422h-4.983v3.306h6.418v3.8ZM78.569,35.9a13.385,13.385,0,0,1-3.628-.5,14.172,14.172,0,0,1-10-11.235h19.29a9.569,9.569,0,0,1,9.4,9.738,9.949,9.949,0,0,1-.194,2Z" transform="translate(0 0)"/>
    <path id="Union_37" data-name="Union 37" class="cls-2" d="M67.373,27.413l-4.543-8.445H59.04v8.367H50.652V12.984H76.735a9.056,9.056,0,0,1-5.522,5.464l5.935,8.966Zm-30.954-.028V0H46.2V27.385ZM25.33,27.256V11.1h-.7L19.753,27.256H13.942L9.062,11.091h-.7V27.256H0V.038H8.365A4.918,4.918,0,0,1,13.013,3.6c.906,3.34,3.486,12.6,3.486,12.6h.7c.07-.251,2.592-9.307,3.486-12.588A4.91,4.91,0,0,1,25.33.049V.038H33.7V27.256ZM150.589,17.11a8.306,8.306,0,0,1-2.241-.308,8.752,8.752,0,0,1-6.176-6.942h11.914a5.912,5.912,0,0,1,5.806,6.016,6.147,6.147,0,0,1-.12,1.234Z" transform="translate(15.601 24.209)"/>
  </g>
</svg>
