<svg xmlns="http://www.w3.org/2000/svg" viewBox="0 0 212.247 81.387">
  <defs>
    <style>
      .cls-1 {
        fill: #006d69;
      }

      .cls-2 {
        fill: #00716d;
      }

      .cls-3 {
        fill: #47a141;
      }

      .cls-4 {
        fill: #fff;
      }
    </style>
  </defs>
  <g id="pci_dss" transform="translate(0 0)">
    <path id="Path_111" data-name="Path 111" class="cls-1" d="M576.922,479.372l-19.735,6.208V454.241c0-1.307,0-1.307-1.344-1.307H545.631c-.887,0-1.158.271-1.158,1.157v30.6c0,.812.233,1.12,1.073,1.12,3.473,0,6.936,0,10.484.112l-.616.271-73.132,23c-.5.149-.933.346-1.195-.383-2.8-7.59-5.6-15.189-8.4-22.928.5,0,.887-.075,1.27-.075h10.017c.933,0,1.195-.308,1.158-1.195v-7.4c0-1,.308-1.232,1.27-1.232a28.54,28.54,0,0,0,10.446-1.438c3.239-1.167,5.89-3.034,7.207-6.357a9.849,9.849,0,0,0-5.2-13.07,22.545,22.545,0,0,0-9.214-2.044c-5.4-.112-10.791,0-16.187-.112-1.036,0-.933.653-.933,1.27v30.536a1.7,1.7,0,0,0-.2,0c-6.311-17.075-12.556-34.037-18.838-51.186,2.119-.112,4.126-.271,6.124-.383q26.409-1.447,52.772-2.931l40.655-2.315a1.155,1.155,0,0,1,1.232.887q8.038,17.924,16.113,35.838c2.007,4.472,4,8.943,6.012,13.368a14.073,14.073,0,0,0,.541,1.307ZM538.648,462.8c0-.457.075-.812.075-1.12v-6.665a1.214,1.214,0,0,0-1.036-1.428,30.093,30.093,0,0,0-11.408-1.158,24.02,24.02,0,0,0-10.409,2.735c-5.769,3.165-9.046,7.944-8.85,14.722s3.734,11.678,10.017,14.218c7.132,2.894,14.413,2.8,21.77.812.616-.159.775-.5.775-1.083v-6.666a5.175,5.175,0,0,0-.112-.691c-1.736.467-3.351,1-5.013,1.344a15.2,15.2,0,0,1-8.784-.5,8.215,8.215,0,0,1-5.358-8.831c.383-4.276,2.8-6.973,6.861-7.748a17.019,17.019,0,0,1,10.325,1.54,11.668,11.668,0,0,1,1.232.5Zm19.772-20.08c0-4.313-3.081-7.207-7.664-7.207s-7.664,2.894-7.664,7.207,3.081,7.132,7.627,7.169,7.711-2.894,7.711-7.169Zm0,0" transform="translate(-453.483 -427.953)"/>
    <path id="Path_112" data-name="Path 112" class="cls-1" d="M930.857,922.12h-.812c-.616.075-.934-.149-.934-.849V914.41c0-.5.075-.887.691-.85a33.375,33.375,0,0,1,4.4.579,3.267,3.267,0,0,1,2.5,3.435c.075,1.867-.616,3.2-2.231,3.818a28.492,28.492,0,0,1-3.585.887.235.235,0,0,1,0-.149Zm0,0" transform="translate(-897.633 -881.418)"/>
    <path id="Path_113" data-name="Path 113" class="cls-2" d="M2571.382,608.38h11.25a13.719,13.719,0,0,1,5.357.887,9.036,9.036,0,0,1,3.389,2.586,10.459,10.459,0,0,1,1.924,3.93,19.024,19.024,0,0,1,.615,4.742,16.792,16.792,0,0,1-.887,6.087,10.085,10.085,0,0,1-2.465,3.622,8.487,8.487,0,0,1-3.388,1.97,16.814,16.814,0,0,1-4.509.654h-11.249V608.38Zm7.553,5.545V627.3h1.867a7.964,7.964,0,0,0,3.389-.542,3.628,3.628,0,0,0,1.577-1.867,11.282,11.282,0,0,0,.579-4.238q0-3.874-1.27-5.321a5.427,5.427,0,0,0-4.2-1.428Zm0,0" transform="translate(-2431.214 -596.43)"/>
    <path id="Path_114" data-name="Path 114" class="cls-2" d="M2951.169,618.6l7.207-.467a5.26,5.26,0,0,0,.934,2.66,3.975,3.975,0,0,0,3.351,1.5,3.734,3.734,0,0,0,2.5-.775,2.287,2.287,0,0,0,.887-1.774,2.2,2.2,0,0,0-.85-1.7c-.541-.5-1.867-.934-3.892-1.428-3.314-.728-5.7-1.736-7.1-2.969a6,6,0,0,1-2.156-4.742,6.4,6.4,0,0,1,1.083-3.585,7.368,7.368,0,0,1,3.352-2.642,15.066,15.066,0,0,1,6.011-.934q4.668,0,7.169,1.736a7.466,7.466,0,0,1,2.931,5.545l-7.131.42a3.736,3.736,0,0,0-1.2-2.39,3.882,3.882,0,0,0-2.5-.775,3.029,3.029,0,0,0-2.008.579,1.641,1.641,0,0,0-.653,1.344,1.393,1.393,0,0,0,.541,1.036,6.255,6.255,0,0,0,2.549.887,33.577,33.577,0,0,1,7.076,2.184,7.509,7.509,0,0,1,3.08,2.661,6.805,6.805,0,0,1,.934,3.622,7.68,7.68,0,0,1-1.307,4.35,8.322,8.322,0,0,1-3.66,3.006,14.548,14.548,0,0,1-5.9,1.036c-4.164,0-7.058-.812-8.674-2.39a9.166,9.166,0,0,1-2.659-6.012Zm0,0" transform="translate(-2785.797 -590.234)"/>
    <path id="Path_115" data-name="Path 115" class="cls-2" d="M3325.184,618.34l7.208-.467a5.293,5.293,0,0,0,.932,2.661,3.978,3.978,0,0,0,3.352,1.5,3.734,3.734,0,0,0,2.5-.775,2.276,2.276,0,0,0,.887-1.774,2.2,2.2,0,0,0-.849-1.7c-.542-.5-1.867-.934-3.893-1.428-3.314-.728-5.7-1.736-7.1-2.969a6,6,0,0,1-2.156-4.742,6.419,6.419,0,0,1,1.074-3.585,7.387,7.387,0,0,1,3.276-2.661,15.075,15.075,0,0,1,6.012-.934q4.668,0,7.169,1.736a7.467,7.467,0,0,1,2.931,5.545l-7.123.411a3.732,3.732,0,0,0-1.2-2.39,3.88,3.88,0,0,0-2.5-.775,3.036,3.036,0,0,0-2.007.579,1.646,1.646,0,0,0-.653,1.344,1.391,1.391,0,0,0,.542,1.036,6.248,6.248,0,0,0,2.539.887,33.538,33.538,0,0,1,7.169,2.212,7.525,7.525,0,0,1,3.117,2.7,6.8,6.8,0,0,1,.934,3.622,7.7,7.7,0,0,1-1.307,4.35,8.31,8.31,0,0,1-3.659,3.006,14.547,14.547,0,0,1-5.892,1.036c-4.162,0-7.056-.812-8.671-2.39a9.168,9.168,0,0,1-2.66-6.012Zm0,0" transform="translate(-3135.111 -589.97)"/>
    <path id="Path_116" data-name="Path 116" class="cls-2" d="M2567.8,1061.511l2.007.616a3.74,3.74,0,0,1-.653,1.428,2.866,2.866,0,0,1-1.083.85,3.97,3.97,0,0,1-1.652.308,4.753,4.753,0,0,1-1.97-.345,3.079,3.079,0,0,1-1.307-1.232,4.4,4.4,0,0,1-.542-2.268,3.921,3.921,0,0,1,5.975-3.277,3.408,3.408,0,0,1,1.195,1.736l-2.044.458a2.028,2.028,0,0,0-.233-.5,1.226,1.226,0,0,0-.457-.42,1.135,1.135,0,0,0-.617-.159,1.3,1.3,0,0,0-1.195.616,2.849,2.849,0,0,0-.309,1.465,2.685,2.685,0,0,0,.383,1.7,1.266,1.266,0,0,0,1.036.457,1.249,1.249,0,0,0,1-.383,2.171,2.171,0,0,0,.458-1.036Zm0,0" transform="translate(-2423.012 -1015.375)"/>
    <path id="Path_117" data-name="Path 117" class="cls-2" d="M2690.668,1060.586a3.957,3.957,0,0,1,1.008-2.8,3.736,3.736,0,0,1,2.8-1,3.892,3.892,0,0,1,2.865,1,3.8,3.8,0,0,1,1.018,2.8,5,5,0,0,1-.42,2.156,3.443,3.443,0,0,1-1.27,1.307,4.158,4.158,0,0,1-2.081.458,4.675,4.675,0,0,1-2.082-.382,3.294,3.294,0,0,1-1.345-1.27,4.38,4.38,0,0,1-.457-2.231Zm2.315,0a2.474,2.474,0,0,0,.419,1.615,1.587,1.587,0,0,0,2.315,0,2.706,2.706,0,0,0,.42-1.736,2.457,2.457,0,0,0-.42-1.541,1.474,1.474,0,0,0-1.158-.5,1.346,1.346,0,0,0-1.121.5A2.251,2.251,0,0,0,2692.984,1060.586Zm0,0" transform="translate(-2542.602 -1015.16)"/>
    <path id="Path_118" data-name="Path 118" class="cls-2" d="M2832.065,1058.6h3.043l1.158,4.546,1.157-4.546h3.006v7.469h-1.867v-5.648l-1.493,5.6h-1.7l-1.456-5.6v5.6h-1.867Zm0,0" transform="translate(-2674.627 -1016.859)"/>
    <path id="Path_119" data-name="Path 119" class="cls-2" d="M2986.415,1058.5h3.818a2.7,2.7,0,0,1,1.868.579,2.186,2.186,0,0,1,.617,1.7,2.272,2.272,0,0,1-.692,1.774,2.985,2.985,0,0,1-2.082.616h-1.27v2.8h-2.315Zm2.315,3.156h.579a1.324,1.324,0,0,0,.933-.234.687.687,0,0,0,.271-.578.794.794,0,0,0-.233-.579,1.3,1.3,0,0,0-.888-.233h-.654Zm0,0" transform="translate(-2818.726 -1016.765)"/>
    <path id="Path_120" data-name="Path 120" class="cls-2" d="M3107.1,1058.6h2.315v5.6H3113v1.868h-5.9Zm0,0" transform="translate(-2931.476 -1016.859)"/>
    <rect id="Rectangle_13" data-name="Rectangle 13" class="cls-2" width="2.315" height="7.44" transform="translate(183.063 41.738)"/>
    <path id="Path_121" data-name="Path 121" class="cls-2" d="M3279.567,1064.146h-2.642l-.328,1.214h-2.351l2.8-7.468h2.5l2.8,7.468h-2.427Zm-.467-1.587-.812-2.66-.8,2.66Zm0,0" transform="translate(-3087.561 -1016.2)"/>
    <path id="Path_122" data-name="Path 122" class="cls-2" d="M3414.593,1058.6h2.156l2.8,4.126V1058.6h2.156v7.469h-2.147l-2.8-4.089v4.042H3414.6Zm0,0" transform="translate(-3218.618 -1016.859)"/>
    <path id="Path_123" data-name="Path 123" class="cls-2" d="M3543.233,1058.6h7.01v1.867H3547.9v5.6h-2.315v-5.648h-2.351Zm0,0" transform="translate(-3338.745 -1016.859)"/>
    <path id="Path_124" data-name="Path 124" class="cls-3" d="M1668.723,782.991a12.418,12.418,0,0,1-5.6-1.232c-.812-.5-4.667-5.162-11.407-13.872l-.234-.308-.074-.383a5.907,5.907,0,0,1,1.428-4.78,6.833,6.833,0,0,1,4.742-2.5,2.993,2.993,0,0,1,1.045.149c2.119.654,6.861,4.892,9.475,7.4,2.045-2.969,6.824-9.868,11.828-16.8,13.545-18.895,15.356-19.707,16.159-20.052a28.252,28.252,0,0,1,10.362-2.269,8,8,0,0,1,.934,0,1.736,1.736,0,0,1,1.54,1.083c.5,1.232-.271,2.044-3.043,5.013-5.471,5.9-18.307,19.7-30.181,45.211l-.074.149-.075.215a8.117,8.117,0,0,1-6.824,3.006Zm0,0" transform="translate(-1572.066 -708.448)"/>
    <path id="Path_125" data-name="Path 125" class="cls-4" d="M1684.772,709.075a6.1,6.1,0,0,1,.85,0c2.5.2-16.187,13.069-32.954,49.141a6.889,6.889,0,0,1-5.6,2.353,11.012,11.012,0,0,1-4.78-1c-1-.616-10.988-13.49-10.988-13.49-.5-3.118,2.857-5.47,4.668-5.47a2.321,2.321,0,0,1,.541.075c2.278.579,10.212,8.29,10.212,8.29s24.748-36.184,28.324-37.771a26.532,26.532,0,0,1,9.755-2.157m0-3.081a29.48,29.48,0,0,0-10.988,2.427c-1.2.542-3.006,1.307-16.8,20.538-4.312,6.012-8.4,11.949-10.829,15.375-.541-.5-1.121-1-1.7-1.54-4.238-3.734-5.937-4.668-7.057-4.966a4.671,4.671,0,0,0-1.5-.234,8.3,8.3,0,0,0-5.937,3.081,7.344,7.344,0,0,0-1.774,6.012l.112.775.457.616c10.325,13.293,11.3,13.909,11.79,14.218a14.2,14.2,0,0,0,6.4,1.466,9.848,9.848,0,0,0,8.056-3.51l.233-.271.159-.345c11.753-25.28,24.467-38.966,29.873-44.81.934-1,1.7-1.811,2.232-2.464s1.867-2.269,1.12-4.2a3.352,3.352,0,0,0-2.847-2.082,10.079,10.079,0,0,0-1.083,0Zm0,0" transform="translate(-1550.383 -687.567)"/>
  </g>
</svg>
