<svg xmlns="http://www.w3.org/2000/svg" viewBox="0 0 159.186 79.896">
  <defs>
    <style>
      .cls-1 {
        fill: #3b477d;
      }
    </style>
  </defs>
  <g id="verified_by_visa" transform="translate(0 0)">
    <g id="Site_Personal" data-name="Site Personal" transform="translate(0 0)">
      <g id="vbyvisa_blu_std" data-name="vbyvisa blu std">
        <g id="Layer_1" data-name="Layer 1">
          <g id="Group">
            <g id="Shape">
              <path id="Path_95" data-name="Path 95" class="cls-1" d="M614.589,663.427l-8.506-26.166h3.64l4.068,12.893c1.1,3.53,2.094,6.721,2.772,9.782h.08c.738-2.992,1.815-6.332,2.992-9.752l4.407-12.963h3.6l-9.333,26.206Z" transform="translate(-606.084 -635.435)"/>
              <path id="Path_96" data-name="Path 96" class="cls-1" d="M1013.534,788.113c.08,4.617,2.992,6.522,6.422,6.522a12.268,12.268,0,0,0,5.185-1l.578,2.443a15.184,15.184,0,0,1-6.232,1.167c-5.764,0-9.214-3.8-9.214-9.473s3.331-10.131,8.785-10.131c6.112,0,7.737,5.395,7.737,8.855a14.115,14.115,0,0,1-.109,1.6Zm9.971-2.443c0-2.174-.887-5.554-4.716-5.554-3.45,0-4.986,3.181-5.225,5.554Z" transform="translate(-990.211 -768.887)"/>
              <path id="Path_97" data-name="Path 97" class="cls-1" d="M1394.122,783.524c0-2.214,0-4.119-.15-5.864h2.991l.109,3.69h.15a5.623,5.623,0,0,1,5.185-4.118,3.69,3.69,0,0,1,1,.12v3.221a4.869,4.869,0,0,0-1.2-.04c-2.393,0-4.1,1.825-4.557,4.387a9.187,9.187,0,0,0-.159,1.6v9.972h-3.371Z" transform="translate(-1354.864 -768.495)"/>
              <path id="Path_98" data-name="Path 98" class="cls-1" d="M1619.553,639.3a2.109,2.109,0,1,1-4.218,0,2.074,2.074,0,0,1,2.124-2.134,1.994,1.994,0,0,1,2.094,2.134Zm-3.789,5.285h3.41v18.787h-3.42Z" transform="translate(-1565.239 -635.382)"/>
              <path id="Path_99" data-name="Path 99" class="cls-1" d="M1731.689,629.225V613.041h-2.633v-2.6h2.633v-.9c0-2.643.578-5.046,2.163-6.562a6.49,6.49,0,0,1,4.567-1.745,7.829,7.829,0,0,1,2.9.548l-.469,2.643a5.038,5.038,0,0,0-2.163-.429c-2.9,0-3.64,2.563-3.64,5.434v1h4.517v2.6h-4.517v16.194Z" transform="translate(-1673.316 -601.233)"/>
              <path id="Path_100" data-name="Path 100" class="cls-1" d="M2004.262,639.3a2.109,2.109,0,0,1-4.218,0,2.084,2.084,0,0,1,2.124-2.134,1.994,1.994,0,0,1,2.094,2.134Zm-3.789,5.285h3.4v18.787h-3.39Z" transform="translate(-1930.852 -635.382)"/>
              <path id="Path_101" data-name="Path 101" class="cls-1" d="M2135.7,788.113c.08,4.617,2.991,6.522,6.421,6.522a12.268,12.268,0,0,0,5.186-1l.578,2.443a15.2,15.2,0,0,1-6.232,1.167c-5.764,0-9.213-3.8-9.213-9.473s3.33-10.131,8.784-10.131c6.113,0,7.738,5.395,7.738,8.855a12.966,12.966,0,0,1-.11,1.6Zm9.972-2.443c0-2.174-.888-5.554-4.717-5.554-3.45,0-4.985,3.181-5.225,5.554Z" transform="translate(-2056.679 -768.887)"/>
              <path id="Path_102" data-name="Path 102" class="cls-1" d="M2509.745,609.9v22.716c0,1.675,0,3.57.149,4.856h-3.061l-.159-3.261h-.08a6.918,6.918,0,0,1-6.38,3.68c-4.517,0-7.978-3.839-7.978-9.553,0-6.252,3.829-10.1,8.4-10.1a6.256,6.256,0,0,1,5.645,2.872h.079V609.9h3.391Zm-3.411,16.424a6.171,6.171,0,0,0-.149-1.436,4.987,4.987,0,0,0-4.917-3.989c-3.52,0-5.6,3.1-5.6,7.26,0,3.8,1.855,6.98,5.533,6.98a5.127,5.127,0,0,0,4.987-4.079,6.022,6.022,0,0,0,.149-1.476Z" transform="translate(-2398.613 -609.47)"/>
              <path id="Path_103" data-name="Path 103" class="cls-1" d="M3098.921,637.462c.08-1.286.15-3.191.15-4.856V609.9h3.361v11.807h.08a6.979,6.979,0,0,1,6.381-3.45c4.648,0,7.979,3.889,7.888,9.593,0,6.721-4.219,10.052-8.4,10.052a6.65,6.65,0,0,1-6.262-3.53h-.11l-.149,3.091Zm3.521-7.539a6.456,6.456,0,0,0,.16,1.247,5.255,5.255,0,0,0,5.105,3.989c3.559,0,5.684-2.912,5.684-7.22,0-3.769-1.934-6.98-5.564-6.98a5.434,5.434,0,0,0-5.185,4.2,6.421,6.421,0,0,0-.2,1.4v3.37Z" transform="translate(-2975.185 -609.47)"/>
              <path id="Path_104" data-name="Path 104" class="cls-1" d="M3462.816,786.683l4.087,11.109c.429,1.246.9,2.722,1.2,3.849h.08c.349-1.127.737-2.562,1.2-3.919l3.71-11.029h3.6l-5.085,13.392c-2.433,6.442-4.1,9.752-6.422,11.767a9.177,9.177,0,0,1-4.177,2.214l-.848-2.872a9.026,9.026,0,0,0,2.991-1.676,10.464,10.464,0,0,0,2.863-3.8,2.551,2.551,0,0,0,.269-.808,3.1,3.1,0,0,0-.229-.9l-6.932-17.321h3.71Z" transform="translate(-3317.5 -777.478)"/>
            </g>
            <g id="Shape-2" data-name="Shape" transform="translate(20.292 40.058)">
              <path id="Path_105" data-name="Path 105" class="cls-1" d="M1051.06,1423.7l-10.321,26.2-4.178-22.266a4.618,4.618,0,0,0-4.567-3.92h-16.872l-.229,1.117a41.782,41.782,0,0,1,9.782,3.271c1.456.807,1.875,1.5,2.343,3.39l7.907,30.713h10.49l16.064-38.491h-10.42Z" transform="translate(-1014.894 -1422.936)"/>
              <path id="Path_106" data-name="Path 106" class="cls-1" d="M1882.295,1423.7l-8.2,38.492h9.912l8.187-38.492Z" transform="translate(-1831.45 -1422.936)"/>
              <path id="Path_107" data-name="Path 107" class="cls-1" d="M2225.378,1419.673c0-1.376,1.346-2.852,4.208-3.23a18.769,18.769,0,0,1,9.792,1.665l1.735-8.157a26.46,26.46,0,0,0-9.273-1.715c-9.812,0-16.692,5.236-16.762,12.734-.05,5.534,4.936,8.635,8.685,10.48s5.116,3.131,5.116,4.826c0,2.583-3.081,3.709-5.922,3.759a20.779,20.779,0,0,1-10.191-2.423l-1.775,8.416a29.981,29.981,0,0,0,11.028,2.045c10.4,0,17.221-5.176,17.25-13.173,0-10.161-13.96-10.72-13.89-15.257" transform="translate(-2151.62 -1408.236)"/>
              <path id="Path_108" data-name="Path 108" class="cls-1" d="M2785.8,1448.75l5.264-14.449,2.992,14.449Zm3.769-24.849a4.506,4.506,0,0,0-4.228,2.822l-14.877,35.659h10.42l2.074-5.744h12.693l1.187,5.744h9.194l-7.977-38.48Z" transform="translate(-2683.327 -1423.123)"/>
            </g>
          </g>
        </g>
      </g>
    </g>
  </g>
</svg>
